<svg width="419" height="145" xmlns="http://www.w3.org/2000/svg">
 <g>
  <title>background</title>
  <rect fill="none" id="canvas_background" height="147" width="421" y="-1" x="-1"/>
 </g>

 <g>
  <title>Layer 1</title>
  <g id="svg_1">
   <path id="svg_2" d="m98.4,39.5c0,0.6 0,1.2 0,1.7c-0.1,0 -0.1,0.1 -0.1,0.2c-0.3,4.6 -0.6,9.3 -0.9,13.9c-0.3,4.1 -0.5,8.2 -0.8,12.3c-0.3,4.3 -0.5,8.6 -0.8,12.9c-0.3,4.1 -0.5,8.1 -0.8,12.2c-0.3,4.2 -0.5,8.5 -0.8,12.7c-0.3,4.1 -0.5,8.3 -0.8,12.4c-0.3,5.1 -0.6,10.2 -1,15.3c-0.1,1.7 0,3.5 -0.8,5.2c-1.8,4.1 -5.1,5.9 -9.3,6.3c-0.2,0 -0.4,0 -0.6,0c-21.5,0 -43,0 -64.5,0c-0.4,0 -0.8,0 -1.2,0c-0.9,-0.1 -1.8,-0.2 -2.7,-0.5c-4.1,-1.2 -6.9,-4.4 -7.2,-8.5c-0.3,-3.3 -0.4,-6.5 -0.6,-9.8c-0.3,-4.1 -0.5,-8.3 -0.8,-12.4c-0.3,-4.3 -0.5,-8.5 -0.8,-12.8c-0.2,-3.4 -0.4,-6.7 -0.6,-10.1c-0.3,-4.2 -0.5,-8.5 -0.8,-12.7c-0.3,-4.1 -0.5,-8.3 -0.8,-12.4c-0.3,-4.2 -0.5,-8.5 -0.8,-12.7c-0.3,-4.1 -0.5,-8.3 -0.8,-12.4c-0.1,-1.9 0.7,-3 2.5,-3.3c1.4,0 2.7,0 4.1,0c1.3,0 2.7,0 4,0c1.4,0 2.8,0 4.2,0c4.3,0 8.7,0 13,0c0.4,0 0.4,-0.2 0.4,-0.5c0,-2 0.1,-4 0.1,-6.1c0,-0.6 0.2,-0.7 0.7,-0.7c3,0.1 5.9,0.2 8.9,0.3c2.3,0.1 4.7,0.1 7,0.2c1,0 1.9,0.1 2.9,0.1c1.4,0 2.7,0 4.1,0.1c1,0.2 2,0.1 2.9,0.1c1.3,0.1 2.7,0.2 4,0.1c2.6,0.1 5.3,0.2 7.9,0.3c0.4,0 0.6,0.1 0.6,0.6c-0.1,1.6 -0.1,3.2 -0.2,4.8c0,0.6 0.2,0.7 0.7,0.7c6.8,0 13.6,0 20.5,0c0.4,0 0.8,0 1.2,0c1.4,0 2.7,0 4.1,0c0.4,0 0.8,0 1.2,0c2.2,0.2 2.8,0.7 3.5,2.5zm-69.6,3.1c-4,0 -8,0 -12,0c-3.5,0 -7,0 -10.6,0c-0.4,0 -0.6,0.1 -0.5,0.5c0.1,1.1 0.1,2.2 0.2,3.3c0.3,4.2 0.5,8.5 0.8,12.7c0.3,4.1 0.5,8.2 0.8,12.3c0.3,4.2 0.6,8.4 0.8,12.6c0.3,4.2 0.5,8.3 0.8,12.5c0.3,4.3 0.6,8.7 0.8,13c0.3,4.1 0.5,8.1 0.8,12.2c0.3,4.3 0.6,8.5 0.8,12.8c0.1,2.6 1.4,4.3 4,4.7c2,0.4 4.1,0.1 6.1,0.1c3.4,0 6.8,0 10.2,0c3.9,0 7.8,0 11.7,0c3.4,0 6.8,0 10.2,0c3.9,0 7.8,0 11.7,0c3.4,0 6.8,0 10.2,0c2.1,0 4.1,0 6.2,0c0.5,0 0.9,-0.1 1.4,-0.2c2,-0.5 3.5,-2 3.7,-3.8c0.1,-1 0.1,-2 0.2,-3c0.2,-3.4 0.4,-6.7 0.6,-10.1c0.3,-4.2 0.5,-8.5 0.8,-12.7c0.2,-3.4 0.4,-6.7 0.6,-10.1c0.3,-4.2 0.5,-8.5 0.8,-12.7c0.3,-4.1 0.5,-8.3 0.8,-12.4c0.3,-4.3 0.5,-8.6 0.8,-12.9c0.2,-3.4 0.4,-6.9 0.7,-10.3c0.2,-2.7 0.3,-5.4 0.5,-8.1c0,-0.4 0,-0.6 -0.5,-0.6c-3.9,0 -7.9,0 -11.8,0c-4,0 -8,0 -12,0c-4.6,0 -9.2,0 -13.8,0c-4,0 -8,0 -12,0c-4.6,0.2 -9.2,0.2 -13.8,0.2zm19.2,-8.1c0,0 0,-0.1 0,-0.1c-1.6,0 -3.2,0 -4.8,0c-3.4,-0.1 -6.8,-0.2 -10.2,-0.3c-0.4,0 -0.6,0.1 -0.5,0.5c0,0.6 0,1.3 0,1.9c-0.1,0.7 0.2,0.8 0.8,0.8c9.6,0 19.1,0 28.7,0c1.5,0 1.5,0 1.5,-1.5c0,-0.6 -0.1,-0.7 -0.7,-0.7c-4.9,-0.3 -9.8,-0.4 -14.8,-0.6z" fill="#ffffff"/>
   <path id="svg_3" d="m2.7,37.2c-0.4,-2.9 -0.7,-5.8 -1.1,-8.7c-0.5,-4 -1,-7.9 -1.5,-11.9c0,-0.2 0,-0.4 -0.1,-0.5c0,-0.2 0,-0.4 0,-0.6c1.9,-0.1 3.7,-0.4 5.6,-0.7c4.3,-0.5 8.7,-1.1 13,-1.7c2.3,-0.3 4.7,-0.6 7,-0.9c0.1,0 0.1,-0.1 0.2,-0.1c1.4,0 2.7,-0.3 4,-0.5c2.8,-0.3 5.5,-0.7 8.3,-1.1c0.5,-0.1 0.6,0 0.7,0.5c0.3,2.8 0.7,5.6 1.1,8.4c-1.3,0.4 -2.6,0.7 -3.9,1.1c-0.2,-1.7 -0.4,-3.4 -0.6,-5.1c0,-0.3 -0.1,-0.4 -0.5,-0.4c-1.8,0.3 -3.6,0.5 -5.4,0.7c-4.3,0.6 -8.6,1.1 -13,1.7c-3.8,0.5 -7.6,1 -11.4,1.5c-0.3,0 -0.5,0.1 -0.4,0.5c0.1,0.8 0.2,1.7 0.3,2.5c0.7,5.1 1.3,10.1 2,15.2c-1.6,0.1 -2.9,0.1 -4.3,0.1z" fill="#ffffff"/>
   <path id="svg_4" d="m82.3,144.8c0,0 0,0.1 0,0.1c-22.1,0 -44.1,0 -66.2,0c0,0 0,-0.1 0,-0.1c0.4,0 0.8,0 1.2,0c21.5,0 43,0 64.5,0c0.1,0 0.3,0 0.5,0z" fill="#C8C9CA"/>
   <path id="svg_5" d="m75.6,139.4c0.2,-4.6 0.4,-9.1 0.7,-13.7c0.2,-4.3 0.4,-8.6 0.6,-12.9c0.3,-5.4 0.5,-10.9 0.8,-16.3c0.2,-4.2 0.4,-8.5 0.6,-12.7c0.3,-5.5 0.5,-10.9 0.8,-16.4c0.2,-4.1 0.4,-8.2 0.6,-12.4c0.2,-4.2 0.4,-8.3 0.6,-12.5c3.9,0 7.9,0 11.8,0c0.5,0 0.6,0.2 0.5,0.6c-0.2,2.7 -0.3,5.4 -0.5,8.1c-0.2,3.4 -0.4,6.9 -0.7,10.3c-0.3,4.3 -0.6,8.6 -0.8,12.9c-0.3,4.1 -0.5,8.3 -0.8,12.4c-0.3,4.2 -0.5,8.5 -0.8,12.7c-0.2,3.4 -0.4,6.7 -0.6,10.1c-0.3,4.2 -0.5,8.5 -0.8,12.7c-0.2,3.4 -0.4,6.7 -0.6,10.1c-0.1,1 -0.1,2 -0.2,3c-0.1,1.7 -1.7,3.3 -3.7,3.8c-0.4,0.1 -0.9,0.2 -1.4,0.2c-1.9,0 -4,0 -6.1,0z" fill="#cddc39"/>
   <path id="svg_6" d="m16.8,42.6c0.3,5.4 0.5,10.8 0.8,16.2c0.3,6.4 0.6,12.7 1,19.1c0.3,5.3 0.5,10.5 0.8,15.8c0.3,6.4 0.6,12.7 1,19.1c0.2,4.3 0.4,8.6 0.6,12.9c0.2,4.6 0.5,9.2 0.7,13.9c-2,0 -4.1,0.2 -6.1,-0.1c-2.6,-0.5 -3.9,-2.1 -4,-4.7c-0.2,-4.3 -0.5,-8.5 -0.8,-12.8c-0.3,-4.1 -0.5,-8.1 -0.8,-12.2c-0.3,-4.3 -0.6,-8.7 -0.8,-13c-0.3,-4.2 -0.5,-8.3 -0.8,-12.5c-0.3,-4.2 -0.5,-8.4 -0.8,-12.6c-0.3,-4.1 -0.5,-8.2 -0.8,-12.3c-0.3,-4.2 -0.5,-8.5 -0.8,-12.7c-0.1,-1.1 -0.1,-2.2 -0.2,-3.3c0,-0.4 0.1,-0.5 0.5,-0.5c3.4,-0.3 7,-0.3 10.5,-0.3z" fill="#cddc39"/>
   <path id="svg_7" d="m42.6,42.6c0.1,6.6 0.1,13.2 0.2,19.8c0,0.5 -0.1,0.8 -0.7,0.9c-4.4,1.1 -8.4,3.2 -11.8,6.2c-0.2,0.1 -0.3,0.3 -0.5,0.4c0,0 0,0 -0.2,0c-0.3,-9.1 -0.6,-18.2 -0.8,-27.3c4.6,0 9.2,0 13.8,0z" fill="#cddc39"/>
   <path id="svg_8" d="m68.4,42.6c-0.3,8.7 -0.5,17.4 -0.8,26.2c-0.3,0 -0.5,-0.2 -0.6,-0.3c-3.6,-2.7 -7.5,-4.5 -11.9,-5.4c-0.5,-0.1 -0.6,-0.3 -0.6,-0.8c0.1,-6.5 0.1,-13.1 0.2,-19.6c4.5,-0.1 9.1,-0.1 13.7,-0.1z" fill="#cddc39"/>
   <path id="svg_9" d="m31.8,139.4c-0.3,-9.2 -0.6,-18.5 -0.8,-27.7c0.3,-0.1 0.4,0.2 0.6,0.3c3.4,2.6 7.1,4.4 11.2,5.3c0.5,0.1 0.6,0.3 0.6,0.8c0,7.1 0.1,14.2 0.2,21.4c-4,-0.1 -7.9,-0.1 -11.8,-0.1z" fill="#cddc39"/>
   <path id="svg_10" d="m53.7,139.4c0.1,-7 0.1,-14 0.2,-21c0,-0.6 0.1,-0.8 0.8,-0.9c4,-0.7 7.7,-2.3 11.1,-4.6c0.1,-0.1 0.3,-0.2 0.5,-0.4c-0.3,9 -0.6,17.9 -0.8,26.8c-4,0.1 -7.9,0.1 -11.8,0.1z" fill="#cddc39"/>
   <path id="svg_11" d="m64.6,9.2c4.3,0.7 8.6,1.4 13,2.1c4.1,0.6 8.1,1.3 12.2,1.9c0.5,0.1 0.5,0.3 0.5,0.7c-0.4,2.7 -0.9,5.3 -1.3,8c-1.4,0 -2.7,-0.1 -4,-0.2c0.2,-1.4 0.4,-2.8 0.7,-4.2c0.2,-0.8 -0.1,-0.9 -0.8,-1c-4.4,-0.7 -8.8,-1.4 -13.3,-2.1c-5.3,-0.8 -10.6,-1.7 -15.8,-2.5c-0.4,-0.1 -0.6,0 -0.7,0.5c-0.9,6.1 -1.9,12.1 -2.9,18.2c-1.4,0 -2.7,0 -4.1,-0.1c0.2,-1.4 0.6,-2.7 0.4,-4.1c0.2,-0.1 0.3,-0.3 0.3,-0.5c0.1,-0.6 0.2,-1.1 0.3,-1.7c0.9,-5.5 1.7,-11 2.6,-16.5c0.1,-0.4 0.2,-0.5 0.6,-0.4c1,0.2 1.9,0.3 2.9,0.5c1.8,0.3 3.6,0.6 5.4,0.8c1.3,0.1 2.7,0.4 4,0.6z" fill="#ffffff"/>
   <path id="svg_12" d="m55.1,30.7c0.2,-3.3 0.4,-6.5 0.5,-9.8c0,-0.5 0.2,-0.6 0.7,-0.6c5.2,0.3 10.3,0.6 15.5,0.8c4.4,0.2 8.8,0.4 13.1,0.6c1.3,0.1 2.7,0.2 4,0.2c1.4,0.1 2.8,0.2 4.2,0.3c1.4,0.1 1.4,0.1 1.4,1.5c-0.2,4.5 -0.5,9 -0.7,13.5c-1.4,0 -2.7,0 -4.1,0c0.2,-3.4 0.3,-6.8 0.5,-10.3c0,-0.6 0,-0.9 -0.7,-0.9c-9.8,-0.5 -19.7,-1 -29.5,-1.5c-0.6,0 -0.7,0.1 -0.7,0.7c-0.1,1.9 -0.2,3.8 -0.3,5.6c-1.2,0.1 -2.5,-0.1 -3.9,-0.1z" fill="#ffffff"/>
   <path id="svg_13" d="m48.6,26.3c0.2,1.4 -0.2,2.8 -0.4,4.1c-1,0 -1.9,-0.1 -2.9,-0.1c-0.6,-2.3 -1.2,-4.6 -1.8,-6.9c-0.1,-0.5 -0.3,-0.5 -0.7,-0.4c-9.6,2.5 -19.2,5 -28.8,7.5c-0.4,0.1 -0.6,0.3 -0.4,0.7c0.5,1.9 1,3.9 1.5,5.9c-1.4,0 -2.8,0 -4.2,0c-0.7,-2.9 -1.5,-5.8 -2.2,-8.7c-0.2,-0.6 0,-0.7 0.5,-0.9c8.9,-2.3 17.7,-4.6 26.6,-6.9c0.1,0 0.1,-0.1 0.2,-0.1c1.3,-0.3 2.7,-0.6 3.9,-1.1c1.9,-0.4 3.8,-0.9 5.7,-1.5c0.5,-0.1 0.7,-0.1 0.8,0.5c0.6,2.4 1.2,4.7 1.9,7.1c-0.1,0.4 -0.2,0.8 0.3,0.8z" fill="#ffffff"/>
   <path id="svg_14" d="m64.6,9.2c-1.4,-0.2 -2.7,-0.4 -4.1,-0.7c0,-1.1 -0.1,-2.3 -0.1,-3.4c-0.1,-1.1 0.1,-1 -1,-0.9c-5.4,0.2 -10.7,0.5 -16.1,0.7c-4.4,0.2 -8.8,0.4 -13.2,0.6c-0.6,0 -0.7,0.2 -0.7,0.8c0.1,1.8 0.2,3.6 0.3,5.4c-1.3,0.2 -2.7,0.4 -4,0.5c-0.1,-3.2 -0.3,-6.5 -0.4,-9.7c0,-0.6 0.1,-0.8 0.7,-0.8c7.4,-0.3 14.8,-0.6 22.3,-1c5.1,-0.2 10.2,-0.5 15.2,-0.7c0.6,0 0.8,0.1 0.8,0.8c0.1,2.7 0.2,5.6 0.3,8.4z" fill="#ffffff"/>
   <path id="svg_15" d="m74.1,90.45c-0.5,14.3 -11.1,24.9 -25.1,24.8c-14.5,-0.1 -24.9,-11.19999 -24.7,-25.19999c0.2,-13.9 11,-23.9 24.8,-24.5c14.8,0.6 24.6,11.3 25,24.89999zm-5.3,0c-0.1,-10.6 -9.2,-19.7 -19.7,-19.6c-9.9,0.1 -19.9,8.4 -19.5,20.4c0.3,10.4 9.9,18.9 20.1,18.7c10.1,-0.2 19.2,-9.4 19.1,-19.5z" fill="#ffffff"/>
   <path id="svg_16" d="m49.1,108.25c-9.5,0 -17.8,-8.39999 -17.8,-18c0,-9.19999 8.3,-17.5 17.2,-17.8c10.7,-0.3 18.7,8.7 18.6,18c0,9.60001 -8.4,17.8 -18,17.8zm0.1,-22.89999c-2.9,0 -5.3,2.39999 -5.2,5.2c0,2.6 2.6,5.1 5.2,5.1c2.7,0 5.2,-2.6 5.1,-5.2c0,-2.6 -2.4,-5.4 -5.1,-5.1zm-2.5,-8.5c-4.3,1.1 -7.6,3.2 -9.7,7.1c1.5,0.6 3,1.1 4.5,1.7c0.3,0.1 0.4,0 0.6,-0.2c1.1,-1.5 2.5,-2.5 4.2,-3.2c0.2,-0.1 0.4,-0.2 0.4,-0.5c0,-1.6 0,-3.2 0,-4.9zm-8.6,12.7c0.2,0 0.4,0 0.6,0c1.8,0 1.8,0 2.1,-1.80001c0,-0.3 0,-0.39999 -0.3,-0.5c-1.1,-0.5 -2.3,-0.89999 -3.4,-1.39999c-0.6,-0.2 -1,0 -1.2,0.6c-0.3,0.9 -0.4,1.8 -0.3,2.7c0,0.4 0.2,0.5 0.6,0.5c0.6,-0.1 1.2,-0.1 1.9,-0.1zm17.9,9c0.8,0 1.4,-0.60001 1.3,-1.4c0,-0.8 -0.7,-1.6 -1.5,-1.5c-0.7,0 -1.5,0.9 -1.5,1.6c0.1,0.6 0.9,1.3 1.7,1.3z" fill="#ffffff"/>
  </g>
  <g id="svg_17">
   <path id="svg_18" d="m152.499999,68.228819c-5.7,-3.8 -13.3,-5.7 -22.8,-5.7c-7.8,0 -13.7,0.4 -17.7,1.2c0.7,13 1.3,23.2 1.6,30.6l1.1,28.8l21.3,0l0.5,-11.8c7.7,0 14,-2.2 18.6,-6.6c4.7,-4.4 7,-10.3 7,-17.6c0.1,-8.2 -3.1,-14.6 -9.6,-18.9l0,0zm-15.6,33.1l0.4,-13.5c0.6,-0.1 1.2,-0.1 1.7,-0.1c4.8,0 7.2,2 7.2,6c-0.1,4.9 -3.2,7.4 -9.3,7.6l0,0z" fill="#ffffff"/>
   <path id="svg_19" d="m164.499999,74.228819l2.2,49l17.9,0c0.3,-9.7 0.6,-17.3 0.8,-23l1.2,-26.1l-22.1,0l0,0.1z" fill="#ffffff"/>
   <path id="svg_20" d="m224.299999,74.228819c-1.8,-0.5 -4.7,-0.7 -8.8,-0.7c-8.4,0 -15,2.4 -19.8,7.2c-4.5,4.5 -6.7,10.4 -6.7,17.8c0,7.9 2.6,14.3 7.8,19.3c4.8,4.5 10.6,6.8 17.3,6.8c3.7,0 6.8,-0.5 9.2,-1.4c0.3,-1.7 0.6,-3.3 0.9,-4.9c0.5,-2.3 0.9,-3.9 1.1,-4.8c-1.9,1 -3.9,1.6 -6,1.6c-3.1,0 -5.6,-0.9 -7.5,-2.8c-1.9,-1.9 -2.9,-4.3 -2.9,-7.2c0,-3.8 1.2,-6.7 3.6,-8.7c2.1,-1.8 4.9,-2.7 8.3,-2.7c1.8,0 3.3,0.2 4.5,0.5l-1,-20z" fill="#ffffff"/>
   <path id="svg_21" d="m263.299999,74.228819c0.2,2.1 0.3,3.9 0.4,5.2c0.1,1.5 0.1,3.5 0.1,6.1l-11.9,-11.2l-16,0c0.6,6.7 1.1,14.9 1.6,24.6c0.6,12 1,20.1 1.2,24.5l10.3,0l0.3,-16.9c4.9,3.4 8.6,6 11,7.8c5.7,4.3 9.9,7.6 12.7,9.8c0.2,-10.2 0.5,-19.3 0.8,-27.2c0.5,-10.7 0.9,-18.2 1.2,-22.5l-11.7,0l0,-0.2z" fill="#ffffff"/>
   <path id="svg_22" d="m327.999999,63.728819c-1.7,3.9 -3,6.8 -4.1,8.9c-3,5.5 -5,9.1 -6.1,10.9c-2.5,-4.1 -4.5,-7.6 -5.9,-10.6c-1.9,-4.2 -3.2,-7.3 -4,-9.1l-22.1,0c1,11.6 1.6,21.4 2,29.5c0.5,14.1 0.9,24.1 1,30l13.9,0l0.4,-18.1l14.8,19.5l13.7,-19.7l0.4,18.2l14,0c0.2,-11 0.5,-21 0.8,-29.8c0.7,-14.3 1.2,-24.2 1.6,-29.7l-20.4,0z" fill="#ffffff"/>
   <path id="svg_23" d="m351.199999,74.228819l2.2,49l17.9,0c0.3,-9.7 0.6,-17.3 0.8,-23l1.2,-26.1l-22.1,0l0,0.1z" fill="#ffffff"/>
   <path id="svg_24" d="m405.799999,74.228819c-0.9,2.2 -1.7,4 -2.4,5.4c-1.2,2.2 -2,3.8 -2.6,4.7c-0.8,-1.7 -1.5,-3.3 -2.1,-4.8c-0.9,-2.6 -1.5,-4.3 -1.8,-5.2l-22,0c2.6,5 5.6,10.6 9,16.7c3.1,5.4 5.4,9.3 6.8,11.6c-1.9,3.3 -3.6,6.2 -5,8.7c-3.8,6.3 -6.3,10.3 -7.4,12l13.1,0c1.6,-2.6 3.6,-5.9 6.3,-10l6.1,10l14.8,0l-11.6,-22.6c3.9,-6.4 6.9,-11.3 8.9,-14.7c3.5,-6.2 5.6,-10.1 6.5,-11.7l-16.6,0l0,-0.1z" fill="#ffffff"/>
   <text font-style="italic" stroke="null" transform="matrix(2.1467525959014893,0,0,1.1684203147888184,-515.644471950829,-42.794549360871315) " xml:space="preserve" text-anchor="start" font-family="Helvetica, Arial, sans-serif" font-size="24" id="svg_25" y="108.687506" x="343.822867" stroke-opacity="null" stroke-width="0" fill="#ffffff">'</text>
   <text font-style="italic" stroke="null" transform="matrix(2.1467525959014893,0,0,1.1684203147888184,-515.644471950829,-42.794549360871315) " xml:space="preserve" text-anchor="start" font-family="Helvetica, Arial, sans-serif" font-size="24" id="svg_26" y="108.259579" x="366.182123" stroke-opacity="null" stroke-width="0" fill="#ffffff">'</text>
   <text font-style="italic" stroke="null" transform="matrix(2.1467525959014893,0,0,1.1684203147888184,-515.644471950829,-42.794549360871315) " xml:space="preserve" text-anchor="start" font-family="Helvetica, Arial, sans-serif" font-size="24" id="svg_27" y="108.473543" x="344.870957" stroke-opacity="null" stroke-width="0" fill="#ffffff">'</text>
  </g>
 </g>
</svg>